<svg xmlns="http://www.w3.org/2000/svg" viewBox="0 0 512 512">
  <rect width="512" height="512" rx="80" fill="#1a3a5c"/>
  <!-- Building shape -->
  <rect x="120" y="180" width="272" height="260" rx="8" fill="#2d5a8e"/>
  <!-- Windows grid -->
  <rect x="150" y="210" width="50" height="40" rx="4" fill="#c9a84c" opacity="0.9"/>
  <rect x="220" y="210" width="50" height="40" rx="4" fill="#c9a84c" opacity="0.9"/>
  <rect x="290" y="210" width="50" height="40" rx="4" fill="#c9a84c" opacity="0.9"/>
  <rect x="150" y="270" width="50" height="40" rx="4" fill="#c9a84c" opacity="0.7"/>
  <rect x="220" y="270" width="50" height="40" rx="4" fill="#c9a84c" opacity="0.7"/>
  <rect x="290" y="270" width="50" height="40" rx="4" fill="#c9a84c" opacity="0.7"/>
  <rect x="150" y="330" width="50" height="40" rx="4" fill="#c9a84c" opacity="0.5"/>
  <rect x="220" y="330" width="50" height="40" rx="4" fill="#c9a84c" opacity="0.5"/>
  <rect x="290" y="330" width="50" height="40" rx="4" fill="#c9a84c" opacity="0.5"/>
  <!-- Door -->
  <rect x="221" y="395" width="70" height="45" rx="4" fill="#1a3a5c"/>
  <!-- Roof triangle -->
  <polygon points="256,80 100,180 412,180" fill="#c9a84c"/>
  <!-- Roof accent -->
  <polygon points="256,100 130,180 382,180" fill="#1a3a5c" opacity="0.3"/>
</svg>
